<svg width="127" height="64" viewBox="0 0 127 64" fill="none" xmlns="http://www.w3.org/2000/svg">
<path d="M0.517817 37.1585C0.517817 33.8152 0.54319 30.4705 0.500377 27.1273C0.489277 26.2541 0.719206 25.8167 1.75308 25.9092C2.49994 25.9752 3.26582 25.8666 4.00792 25.9532C5.50799 26.1278 6.48478 26.9101 6.76703 28.3161C6.87644 28.8591 6.90498 29.4212 6.90498 29.9759C6.9145 35.409 6.90497 40.8422 6.91449 46.2768C6.91766 47.9865 7.64232 48.8495 9.25338 49.2223C10.2524 49.4541 10.6773 49.2722 10.6646 48.1847C10.606 43.4017 10.6377 38.6187 10.6409 33.8358C10.6409 31.7121 11.8666 30.3414 13.7694 30.3194C15.6754 30.2988 16.9535 31.6725 16.9599 33.8035C16.971 38.5864 16.9915 43.3709 16.9408 48.1538C16.9297 49.1753 17.258 49.4571 18.3204 49.2634C19.9933 48.9596 20.6846 48.2492 20.6878 46.5806C20.6973 40.8686 20.683 35.1566 20.6957 29.4447C20.7021 26.6107 23.929 24.7556 26.677 25.9723C27.1669 26.1895 27.0797 26.5711 27.0797 26.9233C27.0845 33.6567 27.1194 40.3916 27.0559 47.1236C27.0337 49.4263 25.8413 50.3787 23.3771 50.3802C17.0042 50.3846 10.6313 50.3831 4.25846 50.3802C1.59767 50.3802 0.536848 49.4086 0.520992 46.9122C0.500378 43.6615 0.51623 40.4107 0.51623 37.1599" fill="#2B2867"/>
<path d="M47.2624 43.4369C47.2624 47.2424 47.2656 51.048 47.2624 54.855C47.2592 57.8078 46.2396 58.7368 43.008 58.7398C39.3974 58.7427 35.7852 58.706 32.1761 58.7632C31.1518 58.7794 30.8299 58.4594 30.9234 57.5715C30.9821 57.0197 30.906 56.4562 30.9567 55.9029C31.1359 53.9172 32.3141 52.9045 34.4881 52.8928C37.4977 52.8766 40.5058 52.8796 43.5154 52.8928C44.4843 52.8972 45.488 52.812 45.4991 51.7055C45.5102 50.5637 44.5318 50.3655 43.471 50.3729C40.5121 50.3934 37.5532 50.3905 34.5943 50.3773C31.9383 50.3641 30.8219 49.3382 30.8204 46.9342C30.8156 41.7829 30.8473 36.6301 30.7934 31.4788C30.7839 30.4955 31.0772 30.1183 32.1301 30.2651C32.4727 30.3135 32.831 30.2709 33.1815 30.2724C35.9881 30.2827 37.1314 31.3129 37.1393 33.8813C37.1504 38.1051 37.1631 42.3289 37.1282 46.5512C37.1203 47.5756 37.4454 48.3637 38.4142 48.8832C40.0443 49.7565 40.8721 49.3309 40.8721 47.6211C40.8721 43.0729 40.8673 38.5248 40.8736 33.9767C40.8768 31.2674 41.9456 30.2812 44.8585 30.2724C46.4632 30.2675 47.2656 30.9891 47.2656 32.4371V43.4369H47.2624Z" fill="#2B2867"/>
<path d="M62.198 34.9702C59.3612 34.9702 56.8653 34.9761 54.3679 34.9688C51.7372 34.9614 50.2895 32.9112 51.2694 30.6364C51.4581 30.1975 51.8006 30.2797 52.1241 30.2797C57.1904 30.2739 62.2567 30.224 67.3214 30.3003C70.0297 30.3414 71.2047 32.5296 69.6365 34.6063C68.666 35.8904 67.4355 37.0073 66.2954 38.177C63.9486 40.5853 61.5828 42.979 59.2344 45.3698C59.4881 45.9025 59.9527 45.6941 60.3015 45.697C62.558 45.7191 64.816 45.6692 67.0724 45.7191C69.6777 45.7763 71.1302 47.828 70.2597 50.0955C70.0963 50.5196 69.7728 50.5064 69.4303 50.505C64.2642 50.502 59.098 50.5167 53.9334 50.4668C52.7013 50.4551 51.4851 50.1483 51.0094 48.8965C50.5067 47.5741 51.0205 46.4294 51.9798 45.4431C54.9657 42.3758 57.9658 39.3203 60.9596 36.2603C61.291 35.9212 61.6161 35.5764 62.1964 34.9688" fill="#2B2867"/>
<path d="M88.5078 40.5677H81.4626V48.101C81.4626 48.851 81.2057 49.4571 80.6935 49.9179C80.1797 50.3802 79.5201 50.6106 78.7098 50.6106C77.8995 50.6106 77.2446 50.3787 76.7467 49.9179C76.2472 49.4556 75.9967 48.8495 75.9967 48.101V31.9484C75.9967 29.6501 76.8339 27.7261 78.5068 26.1777C80.1797 24.6294 82.2586 23.8545 84.7418 23.8545H88.5078C89.3181 23.8545 89.9793 24.0864 90.4915 24.5472C91.0037 25.0095 91.2605 25.6156 91.2605 26.3656C91.2605 27.1156 91.0037 27.7275 90.4915 28.2016C89.9777 28.6771 89.3165 28.9134 88.5078 28.9134H84.7418C83.8237 28.9134 83.0467 29.2069 82.414 29.794C81.7797 30.381 81.4626 31.1001 81.4626 31.9484V35.5089H88.5078C89.3181 35.5089 89.9793 35.7407 90.4915 36.2016C91.0037 36.6639 91.2605 37.27 91.2605 38.0185C91.2605 38.767 91.0037 39.3804 90.4915 39.8545C89.9777 40.33 89.3165 40.5663 88.5078 40.5663" fill="#3AC1BA"/>
<path d="M100.039 24.7718C100.7 25.3838 101.032 26.1146 101.032 26.9644C101.032 27.8141 100.7 28.545 100.039 29.157C99.3777 29.769 98.588 30.0757 97.6699 30.0757C96.7518 30.0757 95.9621 29.7705 95.3009 29.157C94.6396 28.545 94.3082 27.8141 94.3082 26.9644C94.3082 26.1146 94.6381 25.3838 95.3009 24.7718C95.9621 24.1598 96.7518 23.853 97.6699 23.853C98.588 23.853 99.3761 24.1598 100.039 24.7718Z" fill="#3AC1BA"/>
<path d="M100.375 34.031C100.364 32.3579 99.4396 31.5257 97.6049 31.536C96.7946 31.5404 96.1413 31.7752 95.6466 32.2405C95.1503 32.7057 94.9045 33.3133 94.9092 34.0632L95.006 48.1171C95.0107 48.8671 95.2644 49.4718 95.7671 49.9296C96.2698 50.389 96.9262 50.6165 97.7349 50.6121C98.5436 50.6077 99.2049 50.3729 99.7139 49.9076C100.223 49.4424 100.477 48.8348 100.47 48.0863L100.374 34.0324L100.375 34.031Z" fill="#3AC1BA"/>
<path d="M116.86 7.16036C120.524 10.2159 123.187 13.8806 124.844 18.1719C125.511 19.9022 125.978 21.678 126.241 23.4979C126.323 24.0702 126.36 24.6411 126.07 25.1842C125.572 26.1102 124.617 26.6078 123.555 26.4903C122.534 26.3773 121.677 25.6509 121.451 24.6558C121.206 23.5815 121.054 22.4867 120.758 21.4271C119.822 18.0838 118.097 15.1104 115.598 12.5524C111.499 8.35647 106.366 6.02883 100.293 5.48728C99.2588 5.39482 98.2122 5.41977 97.172 5.42711C96.1873 5.43444 95.3215 5.23778 94.6856 4.47316C93.6454 3.22275 94.3304 1.29576 96.0176 0.9905C97.0134 0.809984 98.0632 0.809984 99.0859 0.834933C104.493 0.964083 109.45 2.44344 113.958 5.19963C114.957 5.81015 115.896 6.50581 116.862 7.1633" fill="#3AC1BA"/>
<path d="M110.757 12.5216C114.689 15.5449 116.86 19.1097 117.834 23.3276C117.965 23.8985 118.043 24.4841 118.098 25.0668C118.222 26.3656 117.325 27.437 115.997 27.6101C114.672 27.7833 113.53 26.9688 113.233 25.6817C112.956 24.4782 112.742 23.2513 112.312 22.0934C111.388 19.6131 109.716 17.623 107.481 15.9837C104.801 14.02 101.764 13.1365 98.3993 13.0705C97.8332 13.0587 97.264 13.0939 96.6995 13.0528C95.6291 12.9736 94.7411 12.2515 94.5033 11.3211C94.2686 10.3994 94.6872 9.38527 95.6101 8.89215C96.005 8.68081 96.4965 8.57515 96.9564 8.53258C98.5785 8.38436 100.199 8.47241 101.799 8.74979C104.336 9.18861 106.732 9.99433 108.916 11.2844C109.669 11.7291 110.365 12.2574 110.755 12.5201" fill="#3AC1BA"/>
<path d="M105.69 18.5285C108.277 20.5891 109.791 23.2234 109.902 26.4933C109.938 27.5867 109.046 28.5553 107.872 28.7314C106.683 28.909 105.486 28.2397 105.154 27.186C105.037 26.8132 104.983 26.4214 104.917 26.0369C104.346 22.7332 101.531 20.6008 97.9109 20.7197C97.44 20.7358 96.9548 20.7299 96.4965 20.6419C95.4436 20.4364 94.684 19.4707 94.6872 18.4229C94.6888 17.4263 95.4246 16.5179 96.487 16.3315C97.2338 16.2009 98.0076 16.1114 98.764 16.1392C101.314 16.2332 103.605 17.0227 105.689 18.5285" fill="#3AC1BA"/>
<path d="M55.0878 56.2815C54.2188 56.2243 53.4767 56.4694 52.7409 57.1136V54.6187H52.0258C52.0258 56.1259 51.9925 57.5862 52.0353 59.0421C52.0829 60.6403 53.4862 61.7264 55.2067 61.5605C56.618 61.424 57.6788 60.247 57.6502 58.8484C57.6233 57.4879 56.5006 56.374 55.0894 56.2815H55.0878ZM54.8134 60.8883C53.7114 60.8913 52.7822 59.9799 52.7885 58.8997C52.7949 57.8342 53.7019 56.9551 54.8007 56.9507C55.9472 56.9463 56.8939 57.8474 56.8875 58.935C56.8812 59.9946 55.9345 60.8854 54.8134 60.8883Z" fill="#190B5E"/>
<path d="M61.7746 56.5031C61.199 57.7506 60.6218 59.0025 60.0113 60.3263C59.9099 60.1208 59.8385 59.9916 59.7798 59.8581C59.4468 59.0964 58.7935 57.595 58.3194 56.5046H57.4837C58.0927 57.9267 58.849 59.6952 59.3612 60.9441L59.5103 61.3081C59.5103 61.3081 58.9457 62.6612 58.7253 63.1764H59.5087C60.3681 61.2509 61.6161 58.6282 62.4057 56.8862C62.4597 56.7658 62.5104 56.644 62.5675 56.5031H61.7715H61.7746Z" fill="#190B5E"/>
<path fill-rule="evenodd" clip-rule="evenodd" d="M77.3144 58.2393C77.4175 57.2707 78.1231 56.5515 79.0555 56.5515C80.1227 56.5515 80.6824 57.3382 80.7648 58.2393H77.3144ZM65.7579 54.7963H65.3789V55.8735H64.5623V56.2125C64.5623 56.3916 64.7335 56.5515 64.927 56.5515H65.3789L65.4138 59.6013C65.4249 60.6462 66.0607 61.0542 66.9535 61.0542C67.2754 61.0542 67.5339 61.0028 67.7701 60.9148C67.9097 60.8634 68.0064 60.7563 68.0064 60.6168C68.0064 60.4378 67.8447 60.2881 67.6512 60.2881C67.5862 60.2881 67.4355 60.3571 67.1454 60.3571C66.5856 60.3571 66.2177 60.1281 66.2098 59.5015L66.1749 56.5515H67.6147C67.8193 56.5515 67.9905 56.4018 67.9905 56.2125C67.9905 56.0335 67.8193 55.8735 67.6147 55.8735H66.1749V55.1837C66.1749 54.9753 65.9815 54.7963 65.7563 54.7963H65.7579ZM75.0262 54.7963H74.633V60.6667C74.633 60.8766 74.809 61.041 75.0373 61.041H75.4306V55.1705C75.4306 54.9695 75.2546 54.7963 75.0262 54.7963ZM81.2057 60.3013C81.285 60.2309 81.3294 60.1472 81.3294 60.0621C81.3294 59.8889 81.174 59.7451 80.9773 59.7451C80.8838 59.7451 80.8092 59.7803 80.749 59.8317C80.3526 60.1648 79.8689 60.407 79.2045 60.407C78.2515 60.407 77.427 59.861 77.3128 58.7867H81.1882C81.3849 58.7867 81.5609 58.6429 81.5609 58.4418C81.5609 57.1283 80.6602 55.9293 79.0745 55.9293C77.5935 55.9293 76.5041 57.0799 76.5041 58.5093V58.5284C76.5041 60.0621 77.7124 61.0513 79.1823 61.0513C80.0941 61.0513 80.6919 60.7504 81.2025 60.3028L81.2057 60.3013ZM69.3479 58.2393C69.4509 57.2707 70.1566 56.5515 71.089 56.5515C72.1562 56.5515 72.7159 57.3382 72.7983 58.2393H69.3479ZM73.2344 60.3013C73.3137 60.2309 73.3581 60.1472 73.3581 60.0621C73.3581 59.8889 73.2027 59.7451 73.0061 59.7451C72.9125 59.7451 72.838 59.7803 72.7777 59.8317C72.3813 60.1648 71.8977 60.407 71.2333 60.407C70.2803 60.407 69.462 59.861 69.3479 58.7867H73.2233C73.4199 58.7867 73.5959 58.6429 73.5959 58.4418C73.5959 57.1283 72.6953 55.9293 71.1096 55.9293C69.6286 55.9293 68.5392 57.0799 68.5392 58.5093V58.5284C68.5392 60.0621 69.7411 61.0513 71.2127 61.0513C72.1244 61.0513 72.7222 60.7504 73.2328 60.3028L73.2344 60.3013Z" fill="#190B5E"/>
<path fill-rule="evenodd" clip-rule="evenodd" d="M96.5425 61.0542C96.0969 61.0542 95.775 60.815 95.775 60.4686V60.4393C95.775 60.1619 95.8781 59.9784 96.127 59.7289L98.7069 57.0916H96.5108C96.1587 57.0916 95.8686 56.8333 95.8686 56.506V55.9117H99.9612C100.407 55.9117 100.729 56.1509 100.729 56.4972V56.5266C100.729 56.8054 100.626 56.9874 100.377 57.2369L97.7857 59.8742H100.087C100.439 59.8742 100.729 60.1428 100.729 60.4686V61.0542H96.5425ZM88.8646 54.7963C88.419 54.7963 88.067 55.1235 88.067 55.5345V60.2353C88.067 60.7387 87.3233 60.7886 87.3233 60.7886H87.0823V56.6675C87.0823 56.2551 86.7302 55.9293 86.2846 55.9293C85.8391 55.9293 85.487 56.2551 85.487 56.6675V60.7886H85.2809C85.2809 60.7886 84.5023 60.7269 84.5023 60.0929V55.5345C84.5023 55.1265 84.1455 54.7963 83.7047 54.7963H82.9071V60.3116C82.9071 60.7225 83.2591 61.0498 83.7047 61.0498H88.8662C89.307 61.0498 89.6638 60.7196 89.6638 60.3116V54.7963H88.8646ZM94.8268 61.1995C94.8252 60.8957 94.8236 60.5185 94.8236 60.2984V55.9146H94.026C93.5804 55.9146 93.2284 56.2404 93.2284 56.6528V60.7739H92.9953C92.5259 60.7739 92.2437 60.4657 92.2437 60.1868V56.6528C92.2437 56.2404 91.8917 55.9146 91.4461 55.9146H90.6485V60.2969C90.6485 60.7049 91.0053 61.0351 91.4461 61.0351H94.0276C94.2067 61.0351 94.4161 61.1232 94.424 61.4035L94.4303 61.4079L94.4224 61.4123C94.3796 61.6001 94.2638 61.697 94.0276 61.697H91.4921C91.0465 61.697 90.6945 62.0228 90.6945 62.4352V63.1734H94.0323C94.4732 63.1734 94.8299 62.8432 94.8299 62.4352V61.1951H94.8268V61.1995Z" fill="#3AC1BA"/>
</svg>
